<svg xmlns="http://www.w3.org/2000/svg" xmlns:xlink="http://www.w3.org/1999/xlink" width="329" height="319.754" viewBox="0 0 329 319.754">
  <defs>
    <linearGradient id="linear-gradient" x1="0.5" x2="0.5" y2="1" gradientUnits="objectBoundingBox">
      <stop offset="0" stop-color="#fff"/>
      <stop offset="1" stop-color="#fff"/>
    </linearGradient>
  </defs>
  <g id="Group_96" data-name="Group 96" transform="translate(-5.48 42.619)">
    <g id="Group_93" data-name="Group 93" transform="translate(8.465 5.263)">
      <g id="Group_92" data-name="Group 92">
        <path id="Path_120" data-name="Path 120" fill="url(#linear-gradient)"/>
      </g>
    </g>
    <g id="Component_60_2" data-name="Component 60 – 2" transform="translate(5.48 -42.619)">
      <g id="Component_61_1" data-name="Component 61 – 1">
        <g id="Component_62_1" data-name="Component 62 – 1">
          <text id="HandyMan" transform="translate(0 304.754)" fill="#fff" font-size="66" font-family="Rockwell"><tspan x="0" y="0">HandyMan</tspan></text>
          <g id="Group_97" data-name="Group 97" transform="translate(34)">
            <path id="Path_122" data-name="Path 122" d="M187.064,123.767l1.4.1,1.4.133,1.391.177,1.384.214,1.377.243,1.369.287,1.355.317,1.348.353,1.341.39,1.326.427,1.312.464,1.3.493,1.283.53,1.269.567,1.255.6,1.24.633,1.219.67,1.2.707,1.176.736,1.161.773,1.14.8,1.118.839,1.1.876,1.068.906,1.047.935.968.92.932.935.9.957.868.979.832.994.8,1.016.767,1.031.739,1.046.7,1.068.674,1.075.631,1.1.6,1.1.574,1.119.531,1.134.5,1.141.466,1.156.43,1.163.4,1.178.359,1.186.33,1.193.294,1.2.251,1.208.222,1.208.186,1.222.151,1.222.115,1.222.079,1.237.043,1.23.007,1.237-.036,1.237-.065,1.237-.108,1.237-.136,1.237-.179,1.237-.222,1.23-.251,1.23-.294,1.23-.323,1.222-.373,1.215-.4,1.215,94.677,87.5,1.312-.376,1.312-.339,1.326-.309,1.326-.265,1.334-.236,1.334-.2,1.334-.169,1.341-.125,1.334-.1,1.341-.066,1.341-.029,1.334.007,1.334.037,1.334.074,1.326.1,1.326.14,1.319.169,1.312.206,1.3.236,1.3.272,1.291.3,1.276.339,1.276.361,1.262.4,1.247.427,1.233.464,1.226.493,1.212.53,1.2.552,1.183.589,1.169.618,1.154.648,1.133.685,1.111.707,1.1.744,1.083.773,1.054.8,1.04.832,1.011.862.989.891,1.018.972.982.987.939,1.009.911,1.038.875,1.053.832,1.075.8,1.09.76,1.112.724,1.127.688,1.141.652,1.163.609,1.171.574,1.193.538,1.2.5,1.215.459,1.222.423,1.237.387,1.252.344,1.252.308,1.266.265,1.274.229,1.274.186,1.289.143,1.289.115,1.3.065,1.3.029,1.3-.014,1.3-.05,1.3-.093,1.3-.136,1.3-.172,1.3-.222,1.3-.258,1.3-.3,1.3L387.833,325l-.38,1.281-.43,1.274-.466,1.274-.516,1.259-.043.1-.043.1-.043.1-.05.088-.057.1-.05.088-.057.088-.057.088-.065.081-.065.081-.065.081-.065.081-.072.081-.072.081-.072.074-.072.074-.079.066-.079.074-.086.066-.079.066-.086.066-.086.059-.086.066-.086.052-.093.059-.093.059-.093.051-.093.044-.1.052-.1.044-.1.044-.1.044-.1.037-.1.037-.107.037-.108.029-.1.029-.115.029-.108.022-.107.022-.108.022-.115.015-.108.015-.115.015-.108.007-.115.007-.108.007h-.33l-.115-.007-.108-.007-.108-.015-.107-.007-.108-.022-.108-.015-.108-.022-.107-.022-.108-.022-.108-.029-.1-.029-.107-.037-.1-.029-.1-.037-.1-.044-.1-.037-.1-.044-.1-.052-.093-.044-.093-.052-.093-.052-.093-.059-.093-.059-.093-.059-.086-.059-.086-.066-.086-.066-.086-.066-.079-.074-.079-.074L350.407,305.3l-18.9,17.473,28.342,26.191.079.074.072.074.079.081.072.074.064.081.072.088.065.081.057.081.065.088.057.088.05.088.057.088.05.088.043.088.043.1.043.1.043.088.036.1.036.1.036.1.029.1.029.1.022.1.021.1.022.1.014.1.014.1.014.1.007.1.007.1v.1l.007.1-.007.1v.1l-.007.1-.014.1-.014.1-.014.1-.021.1-.022.1-.022.1-.029.1-.029.1-.029.1-.036.1-.036.1-.043.1-.043.1-.043.1-.05.088-.05.1-.05.088-.057.088-.05.081-.065.088-.057.081-.065.088-.065.081-.065.081-.072.074-.072.074-.072.081-.079.074-.079.066-.079.074-.079.066-.086.066-.086.066-.086.059-.086.059-.093.059-.093.059-.093.052-.093.052-.093.052-.1.052-.1.044-.1.044-.108.037-.1.044-.437.155-.437.155-.437.147-.437.14-.437.14-.444.133-.437.133-.445.133-.445.118-.445.125-.444.11-.445.11-.445.11-.444.1-.445.1-.452.1-.445.088-.445.088-.452.081-.452.081-.445.074-.452.074-.452.066-.444.066-.452.059-.452.059-.452.052-.452.052-.452.044-.452.037-.452.037-.452.037-.452.022-.452.029-.452.022-.445.015-.452.015-.452.007-.452.007h-.452l-.961-.007-.954-.022-.954-.044-.954-.059-.954-.081-.946-.1-.946-.11-.939-.125-.946-.147-.932-.162-.932-.177-.932-.2-.925-.213-.925-.228-.911-.243-.911-.258-.911-.28-.9-.294-.9-.309-.889-.331-.882-.346-.875-.353-.867-.376-.86-.4-.853-.405-.846-.427-.839-.434-.832-.457-.817-.471-.817-.486-.8-.508-.789-.515-.789-.537-.767-.545-.767-.567-.753-.582-.746-.6-.731-.611-.717-.626-.71-.641-.968-.92-.932-.935-.9-.957-.868-.979-.839-.994-.8-1.016-.767-1.031-.738-1.046-.7-1.06-.667-1.082-.638-1.09-.6-1.112-.566-1.119-.538-1.134-.5-1.141-.466-1.156-.43-1.163-.394-1.178-.366-1.185-.33-1.185-.287-1.2-.258-1.208-.222-1.215-.186-1.215-.151-1.23-.115-1.222-.079-1.23-.043-1.237v-1.237l.029-1.237.065-1.237.108-1.237.143-1.237.179-1.23.215-1.237.251-1.23.294-1.222.33-1.23.366-1.215.4-1.208-37.218-34.408-44.087,40.747-15.68,25.911-.036.059-.029.052-.036.052-.036.052-.036.052-.036.052-.043.051-.036.052-.043.052-.036.044-.043.051-.043.044-.043.052-.043.044-.043.044-.043.044-.043.044-.05.044-.043.044-.05.044-.05.044-.05.037-.05.044-.05.037-.05.044-.05.037-.05.037-.057.037-.05.037-.057.037-.05.03-.057.037-.057.037-.057.029-.05.029-.057.037-.065.029-.057.029-.057.029-.057.029-25.2,11.641-.05.022-.043.022-.05.022-.05.022-.043.015-.05.022-.05.015-.05.022-.05.015-.043.015-.05.015-.05.015-.05.022-.05.007-.05.015-.05.015-.05.015-.05.015-.05.007-.05.015-.05.007-.05.007-.05.015-.05.007-.05.007-.05.007-.05.007-.05.007-.05.007-.05.007h-.05l-.05.007h-.05l-.05.007h-.05l-.05.007h-.38l-.086-.007h-.086l-.086-.007-.086-.015-.086-.007-.086-.007-.086-.015-.086-.015-.086-.015-.079-.022-.086-.015-.086-.022-.079-.022-.086-.022-.079-.029-.086-.029-.079-.022-.079-.03-.079-.037-.086-.029-.079-.037-.072-.029-.079-.044-.079-.037-.079-.037-.072-.044-.079-.044-.072-.044-.072-.044-.072-.044-.072-.052-.072-.052-.072-.052-.065-.052-.072-.052-.065-.059-.065-.059-.065-.052-15.752-14.557-.1-.1-.093-.1-.093-.1-.086-.1-.086-.1-.079-.11-.079-.1-.072-.11-.072-.118-.064-.11-.057-.118-.057-.11-.05-.118-.05-.118-.043-.125-.043-.118-.036-.125-.036-.125-.029-.118-.022-.125-.021-.125-.014-.125-.007-.133-.014-.125v-.25l.007-.133.007-.125.014-.125.021-.125.022-.125.029-.133.029-.125.036-.125.043-.118.043-.125.05-.125.05-.118.057-.125.065-.118,12.6-23.289.029-.059.036-.052.029-.052.036-.059.029-.052.036-.052.036-.052.036-.052.036-.052.043-.052.036-.051.043-.044.036-.052.043-.052.043-.044.043-.044.043-.052.043-.044.043-.044.043-.044.05-.044.043-.044.05-.044.05-.044.05-.037.043-.044.05-.037.057-.044.05-.037.05-.037.05-.037.057-.037.05-.037.057-.037.057-.029.057-.037.05-.029.057-.037.057-.029.065-.029,28.034-14.491,44.087-40.747-35.4-32.714-1.312.368-1.319.339-1.326.309-1.326.265-1.326.236-1.334.2-1.341.169-1.334.125-1.341.1-1.341.059-1.334.029-1.341-.007-1.334-.037-1.334-.074-1.326-.1-1.319-.14-1.319-.169-1.312-.206-1.3-.236-1.3-.272-1.291-.3-1.283-.331-1.269-.368-1.262-.4-1.255-.434-1.233-.464-1.226-.493-1.212-.523-1.2-.56-1.183-.589-1.169-.618-1.147-.648-1.133-.685-1.118-.707-1.1-.744-1.075-.773-1.061-.8-1.032-.832-1.018-.861-.989-.891-1.018-.965-.982-.994-.939-1.009-.911-1.038-.868-1.053-.839-1.068-.8-1.1-.767-1.112-.724-1.127-.688-1.141-.645-1.163-.617-1.171-.574-1.193-.538-1.2-.5-1.215-.459-1.222-.423-1.237-.38-1.252-.351-1.252-.3-1.266-.265-1.274-.229-1.274-.186-1.289L135.2,173.1l-.108-1.3-.072-1.3-.029-1.3.014-1.3.05-1.3.093-1.3.136-1.3.179-1.3.215-1.3.258-1.3.3-1.288.344-1.289.387-1.289.423-1.274.473-1.266.509-1.266.043-.1.043-.1.05-.1.05-.088.05-.088.05-.1.057-.081.057-.088.065-.088.064-.081.065-.081.065-.081.072-.081.072-.074.072-.074.079-.074.072-.074.086-.074.079-.066.079-.066.086-.066.086-.059.086-.059.093-.059.086-.059.093-.052.093-.052.1-.052.093-.052.1-.044.1-.044.1-.037.1-.044.108-.037.1-.037.108-.029.108-.029.108-.029.108-.022.108-.022.115-.022.108-.015.115-.015.108-.015.115-.007.108-.007.108-.007h.222l.115.007h.108l.108.015.108.007.115.015.108.015.108.015.108.022.1.022.108.029.108.022.1.037.108.029.1.037.1.037.1.037.1.044.1.044.1.044.093.052.1.044.093.059.093.052.086.059.093.059.086.059.086.066.086.066.086.066.079.074.086.074,28.335,26.191,18.9-17.465-28.335-26.191-.079-.081-.079-.074-.072-.074-.072-.081-.072-.081-.065-.081-.065-.088-.065-.081-.057-.088-.057-.081-.057-.088-.05-.1-.05-.088-.05-.088-.043-.1-.043-.088-.043-.1-.036-.1-.036-.1-.029-.1-.036-.1-.021-.1-.029-.1-.022-.1-.021-.1-.014-.1-.014-.1-.014-.1-.007-.1-.007-.1v-.309l.007-.1.007-.1.007-.1.014-.1.014-.1.022-.1.021-.1.022-.1.029-.1.029-.1.036-.1.036-.1.036-.1.036-.1.043-.1.05-.088.043-.1.05-.088.05-.088.057-.088.057-.088.057-.088.065-.081.057-.081.065-.081.072-.081.072-.081.072-.074.072-.074.072-.074.079-.074.079-.066.086-.074.079-.066.086-.059.086-.066.093-.059.086-.059.093-.052.093-.059.093-.052.1-.052.093-.044.1-.052.108-.037.1-.044.1-.037,1.369-.479,1.369-.434,1.384-.39,1.391-.353,1.391-.317,1.4-.28,1.405-.243,1.405-.2,1.412-.162,1.405-.125,1.412-.088,1.412-.044,1.405-.015,1.405.029Zm-5.026,8.188-.982.059-.975.074-.982.1-.975.118-.982.147-.975.169,26.191,24.2.129.125.122.125.115.133.108.133.1.133.093.14.086.14.086.14.072.147.072.147.057.155.057.147.05.155.043.155.036.155.029.155.022.155.014.162.014.155v.317l-.014.162-.014.155-.022.155-.029.155-.036.162-.043.155-.05.147-.057.155-.057.147-.072.147-.072.147-.086.14-.086.147-.093.133-.1.14-.108.133-.115.125-.122.125-.129.125-25.2,23.289-.129.118-.136.11-.143.11-.143.1-.143.1-.151.088-.151.081-.158.074-.158.066-.158.066-.165.059-.165.052-.165.044-.165.037-.165.037-.172.022-.165.022-.172.015-.172.015h-.344l-.172-.015-.165-.015-.172-.022-.172-.022-.165-.037-.165-.037-.165-.044-.165-.052-.165-.059-.158-.066-.158-.066-.158-.074-.151-.081-.151-.088-.143-.1-.143-.1-.143-.11-.136-.11-.129-.118-26.191-24.2-.179.9-.158.906-.136.906-.108.906-.079.906-.065.906-.036.906-.007.906.007.9.043.906.057.9.086.9.1.9.136.891.151.891.179.884.2.884.222.876.244.869.272.869.294.861.308.854.337.847.366.839.38.832.4.825.43.817.452.8.466.8.495.788.516.773.538.773.559.758.574.744.6.736.624.722.645.707.667.7.688.685.7.67.86.773.875.736.9.714.918.685.932.663.946.633.968.6.982.574,1,.545,1.018.523,1.025.493,1.04.464,1.054.434,1.061.4,1.076.375,1.09.353,1.09.317,1.1.295,1.111.258,1.119.228,1.126.206,1.133.169,1.14.147,1.14.11,1.147.081,1.147.052,1.154.022,1.154-.007,1.154-.044,1.154-.066,1.147-.1,1.154-.133,1.154-.169,1.147-.191,1.14-.228,1.147-.258,1.133-.295,1.133-.324,1.118-.353,1.118-.383.043-.015.036-.015.043-.015.036-.015.043-.015.043-.007.036-.015.043-.007.036-.015.043-.007.043-.015.036-.007.043-.015.043-.007.036-.007.043-.007.043-.007.036-.007.043-.015h.043l.036-.007.043-.007.043-.007.036-.007.043-.007h.043l.036-.007.043-.007h.043l.043-.007h.036l.043-.007h.122l.043-.007h.337l.086.007.086.007.086.007.086.007.086.007.086.015.086.015.086.015.086.015.086.015.079.022.086.022.086.022.079.022.086.022.079.029.079.029.086.029.079.029.079.029.079.037.079.037.079.037.072.037.079.044.079.037.072.044.072.044.072.044.079.052.065.044.072.052.072.052.072.052.065.059.065.052.065.059.065.059,98.664,91.185.093.088.086.088.086.1.086.088.079.1.072.1.079.1.065.1.065.1.064.1.057.1.057.11.05.1.05.11.05.111.036.11.043.11.036.118.029.11.029.118.021.118.021.11.021.118.007.118.014.118.007.118v.236l-.007.118-.007.118-.014.125-.014.118-.022.118-.022.118-.029.118-.029.111-.036.118-.036.118-.043.118-.05.111-.416,1.038-.387,1.038-.351,1.046-.308,1.046-.287,1.053-.244,1.06-.208,1.06-.179,1.068-.143,1.06-.115,1.068-.072,1.068-.043,1.068-.014,1.06.021,1.068.057,1.06.093,1.06.122,1.053.151,1.053.186,1.046.215,1.038.251,1.038.287,1.031.315,1.016.344,1.016.373,1,.409.994.445.979.466.972.5.965.538.95.559.935.6.92.624.913.652.891.681.876.717.861.738.847.774.832.8.81.832.788.724.655.738.633.76.618.767.6.782.574.8.552.8.538.825.515.825.5.846.471.853.456.86.435.875.42.882.39.9.376.9.353.911.331.918.309.925.294.932.272.932.243.946.228.946.206.954.184.961.169.961.14.961.118.975.1.968.074.975.059.975.029.982.015.975-.015.982-.029.982-.052.982-.081.975-.1.982-.125.975-.147.975-.169-26.191-24.2-.057-.059-.065-.059-.057-.059-.057-.066-.057-.059-.057-.066-.05-.059-.057-.066-.05-.066-.043-.066-.05-.066-.05-.074-.043-.066-.043-.074-.043-.066-.036-.074-.043-.074-.036-.066-.036-.074-.036-.074-.029-.081-.029-.074-.029-.074-.029-.074-.029-.081-.022-.074-.029-.081-.022-.074-.014-.081-.022-.081-.014-.081-.014-.074-.014-.081-.007-.081-.014-.081-.007-.081-.007-.081v-.081l-.007-.081v-.169l.007-.081v-.081l.007-.081.007-.081.014-.081.007-.081.014-.074.014-.081.014-.081.022-.081.014-.074.022-.081.029-.081.022-.074.029-.074.029-.081.029-.074.029-.074.029-.074.036-.074.036-.074.036-.074.043-.074.036-.074.043-.066.043-.074.043-.066.05-.066.05-.074.043-.066.05-.066.057-.066.05-.059.057-.066.057-.059.057-.066.057-.059.065-.059.057-.059,25.2-23.29.129-.118.136-.11.143-.1.143-.1.143-.1.151-.081.151-.081.158-.081.158-.066.158-.066.165-.059.165-.044.165-.052.165-.037.172-.029.165-.029.172-.022.172-.015.165-.007.172-.007.172.007.172.007.172.015.165.022.172.029.165.029.172.037.165.052.158.044.165.059.158.066.158.066.158.081.151.081.151.081.151.1.143.1.136.1.136.11.136.118,26.184,24.2.186-.9.151-.906.136-.9.108-.906.086-.906.057-.906.036-.906.014-.906-.014-.906-.036-.906-.065-.9-.079-.9-.108-.9-.129-.891-.158-.891-.179-.884-.194-.884-.229-.876-.244-.869-.272-.869-.287-.861-.315-.847-.337-.847-.359-.847-.387-.832-.4-.825-.43-.81-.445-.81-.473-.8-.495-.8-.516-.773-.531-.773-.559-.751-.581-.751-.6-.736-.624-.722-.645-.707-.667-.7-.681-.685-.71-.67-.86-.766-.875-.744-.9-.714-.911-.685-.932-.663-.953-.633-.968-.6-.982-.574-1-.545-1.018-.523-1.025-.493-1.04-.464-1.054-.434-1.061-.4-1.075-.376-1.083-.346-1.1-.324-1.1-.287-1.111-.265-1.118-.228-1.126-.206-1.133-.169-1.14-.14-1.14-.118-1.147-.081-1.147-.052-1.154-.022-1.147.015-1.154.037-1.154.074-1.154.1-1.154.133-1.147.162-1.154.2-1.14.221-1.14.265-1.14.287-1.126.324-1.126.353-1.119.39-.122.044-.129.037-.122.037-.129.029-.122.029-.129.022-.129.022-.129.022-.129.015-.122.007-.129.007-.129.007h-.258l-.129-.007-.122-.007-.129-.015-.129-.015-.122-.022-.129-.022-.122-.022-.122-.029-.122-.03-.122-.037-.122-.037-.122-.044-.115-.044-.122-.051-.115-.052-.115-.052-.108-.059-.115-.059-.108-.066-.108-.066-.108-.074-.1-.074-.1-.074-.1-.081-.1-.081-.093-.081-98.664-91.192-.093-.081-.086-.1-.086-.088-.079-.1-.079-.1-.079-.1-.072-.1-.072-.1-.065-.1-.065-.1-.057-.11-.057-.1-.05-.11-.05-.11-.043-.11-.043-.11-.036-.11-.036-.111-.036-.118-.021-.118-.029-.11-.022-.118-.014-.118-.014-.118-.007-.118-.007-.118-.007-.118.007-.118v-.118l.007-.118.014-.118.014-.118.022-.118.022-.118.029-.118.029-.118.036-.118.043-.118.043-.11.043-.118.423-1.031.38-1.038.351-1.046.315-1.053.28-1.053.244-1.06.215-1.06.179-1.06.143-1.068.108-1.068.079-1.068.043-1.06.007-1.068-.022-1.068-.057-1.06-.086-1.06-.122-1.053-.158-1.053-.186-1.046-.215-1.038L223,160.369l-.28-1.023-.315-1.024-.344-1.009-.38-1-.409-.994-.437-.987-.473-.972-.5-.965-.531-.942-.566-.943-.588-.92-.624-.906-.66-.9-.681-.876-.71-.861-.746-.847-.774-.825-.8-.81-.825-.8-.731-.655-.738-.633-.753-.611-.767-.6-.782-.582-.8-.552-.81-.538-.817-.515-.832-.493-.846-.479-.853-.457-.86-.434-.875-.412-.882-.4-.889-.375-.9-.353-.911-.331-.918-.309-.918-.295-.932-.265-.939-.25-.939-.228-.954-.206-.954-.184-.954-.169-.961-.14-.968-.118-.968-.1-.975-.074-.975-.059-.975-.029-.982-.015-.975.015Zm14.239,159.816-.021.022-.022.022-.021.022-.022.015-.029.022-.022.015-.021.022-.022.022-.021.015-.029.022-.022.015-.021.022-.022.015-.029.015-.022.022-.022.015-.029.022-.021.015-.029.015-.022.022-.022.015-.029.015-.021.015-.029.022-.022.015-.029.015-.022.015-.029.015-.029.015-.022.022-.029.015-.021.015-.029.015-.029.015-.022.015-.029.015-.029.015-.022.007-.029.015-27.382,14.152-10.554,19.5L168.6,336.45l21.1-9.756,15.308-25.307.007-.015.014-.015.014-.022.007-.015.014-.015.007-.022.014-.015.014-.022.014-.022.014-.015.014-.022.014-.022.014-.015.014-.022.022-.022.014-.022.014-.022.022-.022.014-.022L205.3,301l.014-.022.021-.022.022-.022.014-.022.021-.029.022-.022.022-.022.022-.029.022-.022.021-.022.029-.029.022-.03.022-.022.029-.029.022-.022.022-.029.029-.029.029-.029.021-.022.029-.029,44.524-41.152-9.45-8.733L196.3,291.756ZM353.906,116.146l1.047.088,1.04.118,1.04.155,1.032.184,1.025.228,1.011.25,1,.295,1,.324.982.361.961.39.954.427.932.457.918.493.9.53.875.56.86.6.832.633.81.663.789.692L387.7,138.184l.753.722.717.751.681.766.645.8.609.81.574.832.531.847.5.861.459.876.43.9.387.906.351.913.315.928.28.942.244.942.2.95.172.957.129.965.093.972.057.965.022.972-.014.972-.057.965-.093.972-.122.965-.172.957-.2.95-.244.95-.272.935-.323.935-.351.913-.387.913-.43.891-.466.884-.509.869-.538.847-.581.832-.617.817-.66.8-.7.773-23.474,25.145-.021.022-.022.022-.022.022-.029.029-.022.022-.022.022-.029.022-.022.029-.029.022-.022.022-.029.022-.022.022-.029.022-.022.022-.029.022-.029.022-.021.022-.029.022-.029.022-.021.022-.029.015-.029.022-.029.022-.021.022-.029.015-.029.022-.029.022-.029.015-.029.022-.029.022-.029.015-.029.022-.029.015-.029.022-.029.015-.029.022-.029.015-.029.015-.036.022-.029.015-45.636,25.469-5.786,16.029-.036.1-.043.1-.043.1-.043.1-.05.1-.05.1-.05.088-.057.1-.057.088-.065.088-.057.088-.065.081-.072.081-.072.088-.072.074-.072.081-.072.074-.079.081-.079.066-.086.074-.086.066-.079.066-.093.066-.086.066-.093.059-.093.059-.093.059-.093.052-.1.052-.1.052-.1.052-.1.044-.1.044-.108.037-.108.037-.108.037-.108.037-.108.029-.115.029-.108.022-.029.007-.022.007-.029.007h-.021l-.029.007-.029.007h-.022l-.029.007h-.021l-.029.007-.021.007h-.029l-.029.007H309.6l-.029.007h-.05l-.022.007h-.029l-.029.007h-.05l-.022.007h-.05l-.029.007h-.1l-.029.007h-.4l-.093-.007h-.086l-.086-.007-.086-.007-.086-.015-.086-.007-.086-.015-.086-.015-.086-.022-.079-.015-.086-.022-.086-.015-.086-.022-.079-.029-.086-.022-.079-.029-.079-.03-.086-.029-.079-.03-.079-.029-.079-.037-.079-.037-.079-.037-.072-.037-.079-.044-.072-.037-.079-.044-.072-.044-.072-.044-.072-.052-.072-.044-.072-.052-.065-.052-.072-.052-.065-.052-.065-.059-.072-.052-.057-.059-47.256-43.671-.079-.081-.079-.074-.072-.081-.079-.081-.065-.081-.072-.088-.065-.081-.064-.088-.057-.088-.064-.088-.05-.1-.057-.088-.05-.1-.043-.1-.05-.088-.043-.1-.036-.1-.043-.1-.029-.1-.036-.1-.029-.1-.029-.1-.022-.1-.021-.1-.014-.1-.021-.1-.007-.1-.014-.1-.007-.1v-.1l-.007-.1.007-.1v-.11l.007-.1.014-.1.014-.1.014-.11.022-.1.021-.1.022-.1.029-.1.029-.1.036-.1.036-.1.036-.1.043-.1.043-.1.05-.1.05-.1.05-.1.057-.088.05-.1.065-.088.057-.081.065-.088.065-.081.072-.088.072-.081.072-.074.072-.081.079-.074.079-.074.079-.074.086-.066.079-.074.086-.066.093-.059.086-.066.093-.059.093-.059.1-.059.093-.052.1-.052.1-.052.1-.044.108-.044.1-.044.108-.037.108-.037.108-.037,17.337-5.346,27.009-41.565.014-.029.021-.029.014-.029.022-.022.022-.029.014-.029.021-.022.021-.029.022-.029.014-.022.022-.029.022-.022.021-.029.022-.022.021-.029.022-.022.021-.029.022-.022.021-.029.029-.022.022-.022.021-.029.022-.022.021-.022.029-.029.021-.022.021-.022.029-.022.021-.029.029-.022.021-.022.021-.022.029-.022.022-.022.029-.022.029-.022.022-.022.029-.022.029-.022.022-.022,27.74-22.222.839-.648.86-.6.882-.574.9-.545.918-.5.939-.471.954-.434.975-.4.982-.368,1-.331,1-.295,1.018-.258,1.025-.228,1.032-.191,1.04-.155,1.04-.118,1.047-.088,1.054-.052,1.047-.022,1.054.015Zm-3.528,8.173-.717.059-.717.081-.71.11-.71.133-.7.155-.7.177-.688.206-.681.221-.674.25-.667.28-.653.295-.645.324-.631.346-.624.368-.6.4-.6.42-.574.442-27.2,21.795L284.4,192.686l-.043.066-.043.059-.043.066-.05.059-.043.059-.05.059-.043.059-.05.052-.05.059-.05.059-.057.052-.05.052-.057.052-.05.052-.057.052-.057.052-.057.052-.065.044-.057.052-.057.044-.065.044-.065.044-.064.044-.065.037-.065.044-.065.037-.064.037-.065.044-.072.037-.072.029-.065.037-.072.037-.072.029-.072.029-.072.029-.072.029-.072.029-.079.022-.072.029-.079.022-12.06,3.718,10.439,9.646.208.191.007.007,15.752,14.557v.007l10.654,9.837L311,221.291l.029-.066.029-.074.029-.066.029-.066.029-.066.029-.066.036-.066.036-.066.036-.066.036-.066.036-.059.043-.066.043-.059.036-.066.043-.059.043-.059.05-.059.043-.059.05-.059.043-.059.05-.052.05-.059.057-.052.05-.052.05-.052.057-.059.057-.044.057-.052.057-.052.057-.052.057-.044.065-.044.057-.044.065-.044.065-.044.065-.044.064-.044.065-.037.065-.044.065-.037,46.439-25.918,23.015-24.644.473-.53.452-.545.423-.56.4-.574.366-.582.351-.6.315-.6.294-.611.272-.626.244-.626.215-.641.194-.641.165-.655.136-.655.115-.655.086-.663.065-.663.036-.663.014-.67-.014-.663-.043-.663-.065-.663-.086-.663-.115-.663-.143-.648-.165-.648-.194-.648-.215-.633-.244-.633-.265-.618-.294-.611-.316-.6-.344-.6-.366-.582-.394-.567-.416-.56-.445-.537-.466-.53-.495-.515-.516-.5-15.781-14.586-.538-.479-.559-.449-.574-.434-.588-.4-.6-.39-.617-.361-.624-.339-.645-.317-.652-.295-.66-.265-.674-.243-.681-.228-.688-.2-.7-.169-.7-.155-.71-.133-.71-.1-.717-.081-.717-.059-.717-.029-.724-.015-.724.015Z" transform="translate(-134.99 -116.08)" fill="url(#linear-gradient)"/>
          </g>
        </g>
      </g>
    </g>
  </g>
</svg>
